<?xml version="1.0" encoding="utf-8"?>
<!-- Generator: Adobe Illustrator 25.0.0, SVG Export Plug-In . SVG Version: 6.00 Build 0)  -->
<svg version="1.1" id="Layer_1" xmlns="http://www.w3.org/2000/svg" xmlns:xlink="http://www.w3.org/1999/xlink" x="0px" y="0px"
	 viewBox="0 0 141.5 21" style="enable-background:new 0 0 141.5 21;" xml:space="preserve">
<style type="text/css">
	.st0{fill-rule:evenodd;clip-rule:evenodd;fill:#FFFFFF;}
	.st1{fill:#050101;}
	.st2{fill:#FFFFFF;}
	.st3{font-family:'Gilroy-Bold';}
	.st4{font-size:19.0844px;}
</style>
<g>
	<path id="Ellipse_3__x28_Stroke_x29_" class="st0" d="M14.7,9c0.4,0,0.7-0.3,0.7-0.7c0-0.4-0.3-0.7-0.7-0.7S14,7.8,14,8.2
		C14,8.6,14.3,9,14.7,9z M14.7,9.8c0.9,0,1.6-0.7,1.6-1.6c0-0.9-0.7-1.6-1.6-1.6s-1.6,0.7-1.6,1.6C13.2,9.1,13.9,9.8,14.7,9.8z"/>
	<path id="Ellipse_4__x28_Stroke_x29_" class="st0" d="M12.2,13.2c0.4,0,0.7-0.3,0.7-0.7c0-0.4-0.3-0.7-0.7-0.7
		c-0.4,0-0.7,0.3-0.7,0.7C11.4,12.9,11.8,13.2,12.2,13.2z M12.2,14c0.9,0,1.6-0.7,1.6-1.6c0-0.9-0.7-1.6-1.6-1.6
		c-0.9,0-1.6,0.7-1.6,1.6C10.6,13.3,11.3,14,12.2,14z"/>
	<path id="Line_4__x28_Stroke_x29_" class="st0" d="M21.3,7.5h2.6V9h-2.6V7.5z"/>
	<path id="Line_5__x28_Stroke_x29_" class="st0" d="M3.2,11.9h2.6v1.5H3.2V11.9z"/>
	<path id="Vector_7__x28_Stroke_x29_" class="st0" d="M16.2,16.3v-2h1.5v2.6c0,0.5-0.4,0.9-0.9,0.9H6.1c-0.5,0-0.9-0.4-0.9-0.9V8.5
		c0-0.5,0.4-0.9,0.9-0.9h7.4v1.5H6.6v7.3H16.2z"/>
	<path id="Vector_8__x28_Stroke_x29_" class="st0" d="M10.8,4.3v2H9.3V3.7c0-0.5,0.4-0.9,0.9-0.9l10.6,0c0.5,0,0.9,0.4,0.9,0.9v8.6
		c0,0.5-0.4,0.9-0.9,0.9h-7.3v-1.5h6.8V4.3H10.8z"/>
</g>
<path class="st1" d="M57.4,4.5"/>
<text transform="matrix(1.0125 0 0 1 26.5159 17.315)" class="st2 st3 st4">PrimeTech IT</text>
</svg>
