<svg viewBox="0 0 346 43" xmlns="http://www.w3.org/2000/svg" data-logo="logo">
            <g transform="translate(0, 1) rotate(0)" id="logogram" style="opacity: 1;"><path fill="#FFAD64" d="M12.2501 38.5041L8.20328 31.4947L14.1422 21.2365L17.9161 27.7736L40.1946 27.7616L33.8729 38.6009L12.2501 38.5041Z"></path><path fill="#ADD4D3" d="M44.1727 20.8016L40.1259 27.8108L28.2725 27.7968L32.0468 21.2598L20.8972 1.97211L33.4451 2.02716L44.1727 20.8016Z"></path><path fill="#FB8351" d="M12.8737 1.93472H20.9674L26.8819 12.2073L19.3334 12.2069L8.2047 31.5066L1.97841 20.6124L12.8737 1.93472Z"></path><path fill="#333237" d="M21.9542 0.311858L21.93 0.269989H11.9176L0.0561523 20.604L8.19841 34.8506L8.2084 34.8333L11.2865 40.1647L34.8269 40.27L43.0937 26.0952H43.0387L46.0926 20.8058L34.4136 0.366518L21.9542 0.311858ZM29.6993 13.8721H29.7618L23.8761 3.65005L32.4765 3.68776L42.2528 20.7972L39.1928 26.0974L31.1736 26.1017L33.9696 21.2592L29.6993 13.8721ZM19.9152 3.59966L23.9284 10.5423L18.3719 10.5421L8.85894 27.0394L8.21004 28.1604L3.90107 20.6209L13.8301 3.59966H19.9152ZM16.0567 21.2226L20.2953 13.8719L25.8534 13.8721L30.1241 21.2602L27.3276 26.1038L18.8773 26.1084L16.0567 21.2226ZM10.1296 31.5014L11.7422 28.705L14.1402 24.5628L16.9553 29.4391L25.4043 29.4345L25.3906 29.4581L37.2697 29.4722L32.9192 36.9318L13.2138 36.8436L10.1296 31.5014Z" clip-rule="evenodd" fill-rule="evenodd"></path></g>
            <g transform="translate(62, 3)" id="logotype" style="opacity: 1;"><path d="M32.50 1.95Q35.80 1.95 38.30 3.30Q40.80 4.65 42.17 7.13Q43.55 9.60 43.55 12.80L43.55 12.80Q43.55 15.95 42.13 18.35Q40.70 20.75 38.13 22.07Q35.55 23.40 32.20 23.40L32.20 23.40L25.10 23.40Q24.85 23.40 24.85 23.65L24.85 23.65L24.85 36.40Q24.85 36.65 24.68 36.83Q24.50 37 24.25 37L24.25 37L18.40 37Q18.15 37 17.98 36.83Q17.80 36.65 17.80 36.40L17.80 36.40L17.80 2.55Q17.80 2.30 17.98 2.13Q18.15 1.95 18.40 1.95L18.40 1.95L32.50 1.95ZM31.45 17.75Q33.75 17.75 35.15 16.42Q36.55 15.10 36.55 12.95L36.55 12.95Q36.55 10.75 35.15 9.40Q33.75 8.05 31.45 8.05L31.45 8.05L25.10 8.05Q24.85 8.05 24.85 8.30L24.85 8.30L24.85 17.50Q24.85 17.75 25.10 17.75L25.10 17.75L31.45 17.75ZM57.75 10.95Q59.55 10.95 60.60 11.65L60.60 11.65Q61 11.85 60.90 12.40L60.90 12.40L59.85 18.10Q59.80 18.70 59.15 18.45L59.15 18.45Q58.40 18.20 57.40 18.20L57.40 18.20Q57 18.20 56.30 18.30L56.30 18.30Q54.50 18.45 53.25 19.63Q52 20.80 52 22.75L52 22.75L52 36.40Q52 36.65 51.83 36.83Q51.65 37 51.40 37L51.40 37L45.55 37Q45.30 37 45.13 36.83Q44.95 36.65 44.95 36.40L44.95 36.40L44.95 11.90Q44.95 11.65 45.13 11.47Q45.30 11.30 45.55 11.30L45.55 11.30L51.40 11.30Q51.65 11.30 51.83 11.47Q52 11.65 52 11.90L52 11.90L52 13.80Q52 13.95 52.10 14Q52.20 14.05 52.25 13.95L52.25 13.95Q54.30 10.95 57.75 10.95L57.75 10.95ZM65.40 8.40Q63.70 8.40 62.58 7.27Q61.45 6.15 61.45 4.45L61.45 4.45Q61.45 2.70 62.55 1.60Q63.65 0.50 65.40 0.50L65.40 0.50Q67.15 0.50 68.25 1.60Q69.35 2.70 69.35 4.45L69.35 4.45Q69.35 6.15 68.22 7.27Q67.10 8.40 65.40 8.40L65.40 8.40ZM62.40 37Q62.15 37 61.98 36.83Q61.80 36.65 61.80 36.40L61.80 36.40L61.80 11.85Q61.80 11.60 61.98 11.42Q62.15 11.25 62.40 11.25L62.40 11.25L68.25 11.25Q68.50 11.25 68.67 11.42Q68.85 11.60 68.85 11.85L68.85 11.85L68.85 36.40Q68.85 36.65 68.67 36.83Q68.50 37 68.25 37L68.25 37L62.40 37ZM100.35 10.90Q104.25 10.90 106.45 13.25Q108.65 15.60 108.65 19.85L108.65 19.85L108.65 36.40Q108.65 36.65 108.47 36.83Q108.30 37 108.05 37L108.05 37L102.20 37Q101.95 37 101.78 36.83Q101.60 36.65 101.60 36.40L101.60 36.40L101.60 21.40Q101.60 19.35 100.55 18.15Q99.50 16.95 97.75 16.95L97.75 16.95Q96 16.95 94.90 18.15Q93.80 19.35 93.80 21.35L93.80 21.35L93.80 36.40Q93.80 36.65 93.63 36.83Q93.45 37 93.20 37L93.20 37L87.40 37Q87.15 37 86.97 36.83Q86.80 36.65 86.80 36.40L86.80 36.40L86.80 21.40Q86.80 19.40 85.70 18.18Q84.60 16.95 82.85 16.95L82.85 16.95Q81.25 16.95 80.17 17.90Q79.10 18.85 78.90 20.55L78.90 20.55L78.90 36.40Q78.90 36.65 78.72 36.83Q78.55 37 78.30 37L78.30 37L72.45 37Q72.20 37 72.03 36.83Q71.85 36.65 71.85 36.40L71.85 36.40L71.85 11.90Q71.85 11.65 72.03 11.47Q72.20 11.30 72.45 11.30L72.45 11.30L78.30 11.30Q78.55 11.30 78.72 11.47Q78.90 11.65 78.90 11.90L78.90 11.90L78.90 13.85Q78.90 14 79 14.05Q79.10 14.10 79.20 13.95L79.20 13.95Q81.25 10.90 85.55 10.90L85.55 10.90Q88.05 10.90 89.92 11.95Q91.80 13 92.80 14.95L92.80 14.95Q92.95 15.25 93.15 14.95L93.15 14.95Q94.25 12.90 96.13 11.90Q98 10.90 100.35 10.90L100.35 10.90ZM133.70 21.50Q134 23.40 133.90 25.75L133.90 25.75Q133.85 26.35 133.25 26.35L133.25 26.35L117.80 26.35Q117.50 26.35 117.60 26.60L117.60 26.60Q117.75 27.60 118.15 28.60L118.15 28.60Q119.45 31.40 123.45 31.40L123.45 31.40Q126.65 31.35 128.50 28.80L128.50 28.80Q128.70 28.50 128.95 28.50L128.95 28.50Q129.10 28.50 129.30 28.70L129.30 28.70L132.90 32.25Q133.15 32.50 133.15 32.70L133.15 32.70Q133.15 32.80 132.95 33.10L132.95 33.10Q131.30 35.15 128.70 36.27Q126.10 37.40 123 37.40L123 37.40Q118.70 37.40 115.72 35.45Q112.75 33.50 111.45 30L111.45 30Q110.40 27.50 110.40 23.45L110.40 23.45Q110.40 20.70 111.15 18.60L111.15 18.60Q112.30 15.05 115.17 12.95Q118.05 10.85 122 10.85L122 10.85Q127 10.85 130.03 13.75Q133.05 16.65 133.70 21.50L133.70 21.50ZM122.05 16.95Q118.90 16.95 117.90 19.90L117.90 19.90Q117.70 20.55 117.55 21.50L117.55 21.50Q117.55 21.75 117.80 21.75L117.80 21.75L126.45 21.75Q126.75 21.75 126.65 21.50L126.65 21.50Q126.40 20.05 126.40 20.10L126.40 20.10Q125.95 18.60 124.82 17.77Q123.70 16.95 122.05 16.95L122.05 16.95ZM160.35 2Q160.60 2 160.78 2.17Q160.95 2.35 160.95 2.60L160.95 2.60L160.95 7.50Q160.95 7.75 160.78 7.92Q160.60 8.10 160.35 8.10L160.35 8.10L151.40 8.10Q151.15 8.10 151.15 8.35L151.15 8.35L151.15 36.40Q151.15 36.65 150.97 36.83Q150.80 37 150.55 37L150.55 37L144.70 37Q144.45 37 144.28 36.83Q144.10 36.65 144.10 36.40L144.10 36.40L144.10 8.35Q144.10 8.10 143.85 8.10L143.85 8.10L135.15 8.10Q134.90 8.10 134.72 7.92Q134.55 7.75 134.55 7.50L134.55 7.50L134.55 2.60Q134.55 2.35 134.72 2.17Q134.90 2 135.15 2L135.15 2L160.35 2ZM181.05 21.50Q181.35 23.40 181.25 25.75L181.25 25.75Q181.20 26.35 180.60 26.35L180.60 26.35L165.15 26.35Q164.85 26.35 164.95 26.60L164.95 26.60Q165.10 27.60 165.50 28.60L165.50 28.60Q166.80 31.40 170.80 31.40L170.80 31.40Q174.00 31.35 175.85 28.80L175.85 28.80Q176.05 28.50 176.30 28.50L176.30 28.50Q176.45 28.50 176.65 28.70L176.65 28.70L180.25 32.25Q180.50 32.50 180.50 32.70L180.50 32.70Q180.50 32.80 180.30 33.10L180.30 33.10Q178.65 35.15 176.05 36.27Q173.45 37.40 170.35 37.40L170.35 37.40Q166.05 37.40 163.08 35.45Q160.10 33.50 158.80 30L158.80 30Q157.75 27.50 157.75 23.45L157.75 23.45Q157.75 20.70 158.50 18.60L158.50 18.60Q159.65 15.05 162.53 12.95Q165.40 10.85 169.35 10.85L169.35 10.85Q174.35 10.85 177.38 13.75Q180.40 16.65 181.05 21.50L181.05 21.50ZM169.40 16.95Q166.25 16.95 165.25 19.90L165.25 19.90Q165.05 20.55 164.90 21.50L164.90 21.50Q164.90 21.75 165.15 21.75L165.15 21.75L173.80 21.75Q174.10 21.75 174.00 21.50L174.00 21.50Q173.75 20.05 173.75 20.10L173.75 20.10Q173.30 18.60 172.18 17.77Q171.05 16.95 169.40 16.95L169.40 16.95ZM194.40 37.40Q190.40 37.40 187.48 35.40Q184.55 33.40 183.30 29.90L183.30 29.90Q182.45 27.40 182.45 24L182.45 24Q182.45 20.65 183.30 18.20L183.30 18.20Q184.50 14.80 187.45 12.85Q190.40 10.90 194.40 10.90L194.40 10.90Q198.40 10.90 201.43 12.90Q204.45 14.90 205.45 17.95L205.45 17.95Q205.85 19.15 205.85 19.75L205.85 19.75L205.85 19.85Q205.85 20.30 205.35 20.40L205.35 20.40L199.60 21.25L199.50 21.25Q199.05 21.25 198.90 20.75L198.90 20.75L198.75 19.95Q198.40 18.65 197.20 17.80Q196.00 16.95 194.35 16.95L194.35 16.95Q192.75 16.95 191.65 17.75Q190.55 18.55 190.10 19.95L190.10 19.95Q189.55 21.45 189.55 24.05L189.55 24.05Q189.55 26.65 190.05 28.15L190.05 28.15Q190.50 29.65 191.63 30.50Q192.75 31.35 194.35 31.35L194.35 31.35Q195.90 31.35 197.08 30.52Q198.25 29.70 198.70 28.25L198.70 28.25Q198.75 28.15 198.75 27.95L198.75 27.95Q198.80 27.90 198.80 27.80L198.80 27.80Q198.85 27.20 199.50 27.30L199.50 27.30L205.25 28.20Q205.75 28.30 205.75 28.75L205.75 28.75Q205.75 29.15 205.45 30.25L205.45 30.25Q204.40 33.60 201.38 35.50Q198.35 37.40 194.40 37.40L194.40 37.40ZM220.85 10.90Q224.85 10.90 227.30 13.35Q229.75 15.80 229.75 20L229.75 20L229.75 36.40Q229.75 36.65 229.58 36.83Q229.40 37 229.15 37L229.15 37L223.30 37Q223.05 37 222.88 36.83Q222.70 36.65 222.70 36.40L222.70 36.40L222.70 21.45Q222.70 19.45 221.58 18.20Q220.45 16.95 218.60 16.95L218.60 16.95Q216.75 16.95 215.63 18.20Q214.50 19.45 214.50 21.45L214.50 21.45L214.50 36.40Q214.50 36.65 214.33 36.83Q214.15 37 213.90 37L213.90 37L208.05 37Q207.80 37 207.63 36.83Q207.45 36.65 207.45 36.40L207.45 36.40L207.45 2.60Q207.45 2.35 207.63 2.17Q207.80 2 208.05 2L208.05 2L213.90 2Q214.15 2 214.33 2.17Q214.50 2.35 214.50 2.60L214.50 2.60L214.50 13.65Q214.50 13.80 214.60 13.85Q214.70 13.90 214.75 13.80L214.75 13.80Q216.80 10.90 220.85 10.90L220.85 10.90ZM248.35 37Q248.10 37 247.93 36.83Q247.75 36.65 247.75 36.40L247.75 36.40L247.75 2.60Q247.75 2.35 247.93 2.17Q248.10 2 248.35 2L248.35 2L254.20 2Q254.45 2 254.63 2.17Q254.80 2.35 254.80 2.60L254.80 2.60L254.80 36.40Q254.80 36.65 254.63 36.83Q254.45 37 254.20 37L254.20 37L248.35 37ZM282.55 2Q282.80 2 282.98 2.17Q283.15 2.35 283.15 2.60L283.15 2.60L283.15 7.50Q283.15 7.75 282.98 7.92Q282.80 8.10 282.55 8.10L282.55 8.10L273.60 8.10Q273.35 8.10 273.35 8.35L273.35 8.35L273.35 36.40Q273.35 36.65 273.18 36.83Q273 37 272.75 37L272.75 37L266.90 37Q266.65 37 266.48 36.83Q266.30 36.65 266.30 36.40L266.30 36.40L266.30 8.35Q266.30 8.10 266.05 8.10L266.05 8.10L257.35 8.10Q257.10 8.10 256.93 7.92Q256.75 7.75 256.75 7.50L256.75 7.50L256.75 2.60Q256.75 2.35 256.93 2.17Q257.10 2 257.35 2L257.35 2L282.55 2Z" fill="#ffffff"></path></g>
            
          </svg>